<?xml version="1.0" encoding="UTF-8"?>
<!DOCTYPE svg PUBLIC "-//W3C//DTD SVG 1.1//EN" "http://www.w3.org/Graphics/SVG/1.1/DTD/svg11.dtd">
<!-- Creator: CorelDRAW 2018 (64 Bit) -->
<svg xmlns="http://www.w3.org/2000/svg" xml:space="preserve" width="210mm" height="297mm" version="1.1" style="shape-rendering:geometricPrecision; text-rendering:geometricPrecision; image-rendering:optimizeQuality; fill-rule:evenodd; clip-rule:evenodd"
viewBox="0 0 21000 29700"
 xmlns:xlink="http://www.w3.org/1999/xlink">
 <defs>
  <style type="text/css">
   <![CDATA[
    .str0 {stroke:#00A0E3;stroke-width:20;stroke-miterlimit:22.9256}
    .fil1 {fill:#00A0E3}
    .fil0 {fill:#00A0E3;fill-rule:nonzero}
   ]]>
  </style>
 </defs>
 <g id="Ebene_x0020_1">
  <metadata id="CorelCorpID_0Corel-Layer"/>
  <g id="_2141377024256">
   <path class="fil0" d="M4611.43 15396.28l-227.87 -904.87 0 980.27c0,54.24 -12.24,94.92 -36.38,122.04 -24.15,27.12 -56.23,40.68 -95.92,40.68 -38.69,0 -70.44,-13.56 -94.91,-40.35 -24.48,-26.79 -36.72,-67.46 -36.72,-122.37l0 -1123.81c0,-62.18 16.21,-103.85 48.29,-125.68 32.41,-21.49 76.07,-32.41 130.64,-32.41l89.3 0c53.57,0 92.27,4.96 116.41,14.55 24.14,9.59 42.33,27.12 53.91,52.26 11.58,25.13 24.81,66.14 39.69,123.03l206.37 778.53 206.38 -778.53c14.88,-56.89 28.11,-97.9 39.68,-123.03 11.58,-25.14 29.44,-42.67 53.58,-52.26 24.15,-9.59 63.17,-14.55 116.75,-14.55l88.97 0c54.9,0 98.55,10.92 130.96,32.41 32.08,21.83 48.29,63.5 48.29,125.68l0 1123.81c0,54.24 -12.24,94.92 -36.38,122.04 -24.14,27.12 -56.55,40.68 -96.9,40.68 -38.04,0 -69.46,-13.56 -93.93,-40.68 -24.47,-27.12 -36.71,-67.8 -36.71,-122.04l0 -980.27 -227.87 904.87c-14.89,58.54 -26.79,101.86 -36.38,129.31 -9.26,27.12 -26.46,52.26 -51.6,74.75 -25.46,22.82 -60.19,34.06 -104.84,34.06 -33.73,0 -62.17,-7.27 -85.33,-21.83 -23.15,-14.55 -41.34,-33.07 -54.24,-55.56 -12.89,-22.82 -23.15,-47.62 -30.42,-75.07 -7.61,-27.45 -15.22,-56.23 -22.82,-85.66zm2445.72 -299.31c0,79.04 -12.23,151.47 -36.71,217.95 -24.8,66.48 -60.19,123.69 -106.82,171.32 -46.31,47.95 -102.2,84.33 -166.69,109.8 -64.49,25.46 -137.25,38.36 -217.95,38.36 -80.37,0 -152.47,-12.9 -216.3,-38.69 -63.83,-25.8 -119.39,-62.84 -166.35,-111.13 -46.64,-47.95 -82.36,-104.84 -106.5,-170.32 -24.14,-65.82 -36.38,-138.25 -36.38,-217.62 0,-80.04 12.24,-153.46 36.71,-219.94 24.81,-66.47 59.86,-123.36 105.84,-170.65 45.97,-46.97 101.53,-83.35 166.68,-108.81 65.16,-25.47 137.25,-38.37 216.3,-38.37 80.04,0 152.8,12.9 217.95,38.7 65.15,25.8 121.05,62.84 167.68,110.79 46.63,47.63 82.02,104.51 106.16,170.66 24.15,65.81 36.38,138.57 36.38,217.95zm-265.9 0c0,-107.82 -23.82,-191.49 -71.11,-251.69 -47.62,-59.86 -111.12,-89.95 -191.16,-89.95 -51.93,0 -97.24,13.23 -136.59,40.01 -39.36,26.79 -69.79,66.48 -90.95,118.74 -21.5,52.25 -32.08,113.44 -32.08,182.89 0,69.12 10.58,129.64 31.42,181.24 21.16,51.59 50.93,91.28 89.95,118.73 39.03,27.45 85.33,41.01 138.25,41.01 80.04,0 143.54,-30.1 191.16,-90.62 47.29,-60.19 71.11,-143.87 71.11,-250.36zm2368 -387.95l0 764.65c0,52.92 -12.56,92.93 -37.7,120.05 -25.14,27.12 -56.89,40.68 -95.58,40.68 -38.7,0 -70.12,-13.89 -94.26,-41.67 -24.14,-27.78 -36.38,-67.47 -36.38,-119.06l0 -756.71c0,-52.58 12.24,-91.94 36.38,-118.4 24.14,-26.46 55.56,-39.69 94.26,-39.69 38.69,0 70.44,13.23 95.58,39.69 25.14,26.46 37.7,63.5 37.7,110.46zm-130.63 -273.18c-36.72,0 -68.13,-11.24 -94.26,-33.73 -26.13,-22.49 -39.03,-54.57 -39.03,-95.91 0,-37.04 13.23,-67.8 40.02,-91.95 26.79,-24.14 57.88,-36.38 93.27,-36.38 34.39,0 64.49,10.92 90.95,32.75 26.45,22.16 39.68,53.91 39.68,95.58 0,40.68 -12.9,72.43 -38.69,95.25 -25.8,22.82 -56.23,34.39 -91.94,34.39zm1202.51 960.44l-227.87 -904.87 0 980.27c0,54.24 -12.24,94.92 -36.38,122.04 -24.15,27.12 -56.23,40.68 -95.92,40.68 -38.69,0 -70.44,-13.56 -94.91,-40.35 -24.48,-26.79 -36.72,-67.46 -36.72,-122.37l0 -1123.81c0,-62.18 16.21,-103.85 48.29,-125.68 32.41,-21.49 76.07,-32.41 130.64,-32.41l89.3 0c53.57,0 92.27,4.96 116.41,14.55 24.14,9.59 42.33,27.12 53.91,52.26 11.58,25.13 24.81,66.14 39.69,123.03l206.37 778.53 206.38 -778.53c14.88,-56.89 28.11,-97.9 39.68,-123.03 11.58,-25.14 29.44,-42.67 53.58,-52.26 24.15,-9.59 63.17,-14.55 116.75,-14.55l88.97 0c54.9,0 98.55,10.92 130.96,32.41 32.08,21.83 48.29,63.5 48.29,125.68l0 1123.81c0,54.24 -12.24,94.92 -36.38,122.04 -24.14,27.12 -56.55,40.68 -96.9,40.68 -38.04,0 -69.46,-13.56 -93.93,-40.68 -24.47,-27.12 -36.71,-67.8 -36.71,-122.04l0 -980.27 -227.87 904.87c-14.89,58.54 -26.79,101.86 -36.38,129.31 -9.26,27.12 -26.46,52.26 -51.6,74.75 -25.46,22.82 -60.19,34.06 -104.84,34.06 -33.73,0 -62.17,-7.27 -85.33,-21.83 -23.15,-14.55 -41.34,-33.07 -54.24,-55.56 -12.89,-22.82 -23.15,-47.62 -30.42,-75.07 -7.61,-27.45 -15.22,-56.23 -22.82,-85.66zm2123.92 89.63c-64.16,49.6 -126,86.65 -185.54,111.45 -59.86,24.81 -126.99,37.04 -201.08,37.04 -67.8,0 -127.66,-13.56 -178.92,-40.35 -51.26,-26.79 -90.95,-62.83 -118.73,-108.81 -27.78,-45.97 -41.68,-95.58 -41.68,-149.15 0,-72.43 22.83,-133.95 68.8,-184.88 45.97,-51.26 109.14,-85.33 189.5,-102.86 16.54,-3.97 58.21,-12.57 124.69,-26.13 66.47,-13.56 123.69,-25.79 170.98,-37.37 47.3,-11.24 98.89,-24.8 154.45,-41.01 -3.3,-69.78 -17.19,-121.04 -42,-153.46 -25.13,-32.74 -76.4,-48.94 -154.78,-48.94 -67.14,0 -117.74,9.26 -151.47,28.11 -34.07,18.52 -63.17,46.63 -87.31,84.33 -24.15,37.38 -41.35,61.85 -51.27,74.09 -10.25,11.9 -31.75,17.86 -64.49,17.86 -29.76,0 -55.56,-9.6 -77.06,-28.78 -21.5,-18.85 -32.41,-43.32 -32.41,-73.09 0,-46.63 16.54,-91.94 49.28,-135.93 33.07,-43.98 84.33,-80.03 154.12,-108.48 69.78,-28.44 156.76,-42.66 260.94,-42.66 116.09,0 207.7,13.89 274.18,41.34 66.47,27.45 113.44,70.78 140.89,130.31 27.45,59.53 41.34,138.24 41.34,236.47 0,62.18 -0.33,114.76 -0.66,158.09 -0.33,43.32 -0.67,91.61 -1.33,144.52 0,49.61 8.27,101.54 24.81,155.45 16.53,53.58 24.47,88.3 24.47,103.85 0,27.12 -12.57,51.92 -38.03,74.08 -25.8,22.16 -54.57,33.4 -86.98,33.4 -27.12,0 -53.91,-12.57 -80.37,-38.03 -26.46,-25.47 -54.57,-62.18 -84.34,-110.46zm-17.53 -383.32c-38.69,14.22 -94.91,29.44 -169,44.98 -73.75,15.88 -125.01,27.78 -153.46,35.06 -28.44,7.6 -55.56,22.16 -81.35,43.65 -25.8,21.83 -38.7,51.93 -38.7,90.95 0,40.02 15.21,74.09 45.64,102.2 30.1,28.11 69.78,42.33 119.06,42.33 52.26,0 100.54,-11.57 144.53,-34.39 44.32,-23.15 76.73,-52.59 97.57,-88.97 23.81,-40.02 35.71,-106.16 35.71,-198.11l0 -37.7zm966.05 -379.01l213.98 601.26 230.52 -627.39c18.19,-50.27 35.72,-85.99 53.25,-107.16 17.53,-20.83 43.99,-31.42 79.37,-31.42 33.74,0 62.18,11.25 85.66,34.07 23.48,22.49 35.39,48.62 35.39,78.38 0,11.58 -1.98,25.14 -6.28,40.68 -4.3,15.55 -8.93,30.1 -14.56,43.66 -5.62,13.56 -11.9,29.1 -18.85,46.3l-253.67 630.04c-7.27,17.86 -16.2,41.01 -27.78,68.79 -11.24,27.78 -23.81,51.26 -37.7,71.1 -13.89,19.85 -31.09,35.06 -51.26,45.98 -20.51,10.91 -44.98,16.53 -74.09,16.53 -37.37,0 -67.13,-8.6 -89.62,-25.79 -22.16,-16.87 -38.7,-35.72 -49.28,-56.23 -10.58,-20.17 -28.77,-60.52 -53.91,-120.38l-251.68 -623.1c-5.96,-15.54 -11.91,-31.08 -17.86,-46.63 -6.29,-15.54 -11.25,-31.09 -15.55,-47.29 -4.3,-16.21 -6.28,-30.1 -6.28,-41.67 0,-18.19 5.62,-36.05 16.53,-53.91 10.92,-17.86 26.13,-32.41 45.31,-43.66 19.52,-11.24 40.35,-16.87 63.17,-16.87 43.66,0 74.09,12.57 90.62,37.71 16.21,25.46 34.4,67.8 54.57,127zm1900.69 438.54l-517.59 0c0.66,60.19 12.9,113.11 36.38,159.08 23.48,45.97 54.9,80.37 93.92,103.52 39.03,23.48 82.35,35.06 129.32,35.06 31.75,0 60.52,-3.64 86.65,-11.25 26.46,-7.27 51.59,-18.85 76.07,-34.72 24.8,-15.88 47.29,-32.75 67.8,-50.94 20.83,-18.19 47.62,-42.66 80.69,-73.75 13.56,-11.57 32.75,-17.53 57.88,-17.53 27.12,0 49.28,7.61 66.15,22.49 16.53,14.56 25.13,35.72 25.13,62.84 0,23.81 -9.59,51.59 -28.11,83.68 -18.85,31.75 -46.96,62.5 -85,91.61 -37.7,29.43 -84.99,53.91 -142.21,73.09 -57.22,19.51 -123.03,29.1 -197.11,29.1 -170,0 -301.96,-48.61 -396.22,-145.52 -94.25,-96.9 -141.22,-228.2 -141.22,-394.23 0,-78.05 11.58,-150.81 34.73,-217.62 23.15,-66.8 57.21,-124.02 101.53,-171.97 44.65,-47.63 99.55,-84.34 164.71,-109.81 65.15,-25.46 137.58,-38.36 216.95,-38.36 103.52,0 192.16,21.83 265.91,65.48 74.08,43.66 129.31,99.88 166.35,169.34 36.72,69.12 55.24,139.56 55.24,211.33 0,66.48 -19.19,109.8 -57.22,129.65 -38.03,19.51 -91.61,29.43 -160.73,29.43zm-517.59 -150.81l479.55 0c-6.28,-90.29 -30.76,-157.76 -73.09,-202.74 -42.33,-44.64 -97.89,-67.13 -167.02,-67.13 -66.14,0 -120.05,22.82 -162.38,68.13 -42.34,45.64 -68.13,112.77 -77.06,201.74zm1498.52 -306.25l0 32.08c46.63,-61.52 97.56,-106.5 152.8,-135.27 55.23,-28.77 118.73,-43 190.49,-43 69.79,0 131.97,15.22 187.2,45.64 54.9,30.1 95.91,73.1 123.03,128.66 17.53,32.41 28.77,67.14 34.06,104.84 4.96,37.37 7.61,85 7.61,143.2l0 492.46c0,52.92 -12.24,92.93 -36.38,120.05 -24.14,27.12 -55.89,40.68 -94.59,40.68 -39.36,0 -71.44,-13.89 -96.24,-41.67 -24.47,-27.78 -36.71,-67.47 -36.71,-119.06l0 -441.19c0,-86.98 -12.24,-153.79 -36.38,-200.09 -24.14,-45.98 -72.43,-69.13 -144.86,-69.13 -46.96,0 -89.96,13.89 -128.98,42.01 -38.7,28.11 -67.14,66.8 -85,116.08 -12.9,39.36 -19.51,112.78 -19.51,220.93l0 331.39c0,53.58 -12.57,93.59 -37.38,120.38 -24.8,26.79 -56.88,40.35 -95.91,40.35 -38.03,0 -69.45,-13.89 -93.93,-41.67 -24.47,-27.78 -36.71,-67.47 -36.71,-119.06l0 -764.65c0,-50.27 10.92,-87.97 32.75,-112.77 22.15,-24.81 51.92,-37.38 89.95,-37.38 23.16,0 44.32,5.63 62.84,16.54 18.85,10.91 33.74,27.45 44.98,49.28 11.25,21.83 16.87,48.95 16.87,80.37z"/>
   <path class="fil1 str0" d="M8558.76 14649.89l-679.1 720.99 -493.89 -926.04 207.16 -96.83 280.07 694.92 203.45 0 283.65 -714.04 198.66 321zm-768.39 -394.16l406.79 -190.13 76.42 123.48 -89.92 0 -162.87 435.7c-8.77,24.13 -16.73,48.26 -24.4,72.39 -3.02,11.79 -10.97,36.19 -23.31,73.21l-46.61 -145.6 -136.1 -369.05z"/>
  </g>
 </g>
</svg>
